Coordinates
version=1
nRows=12
nColumns=33
inDegrees=yes

Units are S.I. units (second, meters, Newtons, ...)
Angles are in degrees.

endheader
time	ground_thorax_rot_x	ground_thorax_rot_y	ground_thorax_rot_z	ground_thorax_tx	ground_thorax_ty	ground_thorax_tz	clav_prot_r	clav_elev_r	scapula_abduction_r	scapula_elevation_r	scapula_upward_rot_r	scapula_winging_r	shoulder_elv_r	plane_of_elev_r	axial_rot_r	elbow_flexion_r	pro_sup_r	wrist_flex_r	wrist_dev_r	clav_prot_l	clav_elev_l	scapula_abduction_l	scapula_elevation_l	scapula_upward_rot_l	scapula_winging_l	shoulder_elv_l	plane_of_elev_l	axial_rot_l	elbow_flexion_l	pro_sup_l	wrist_flex_l	wrist_dev_l
      1.25000000	      2.95550437	      3.58454386	     12.30655301	     -0.12184670	      1.03967958	      0.03200509	      5.98374374	     12.38621490	     22.41021600	      7.38207327	     24.67282716	    -12.08185727	     16.00006656	    -75.78792936	     63.42370747	     56.70443981	    -29.12277435	     70.00000021	    -24.99999983	     10.14421258	     -3.48853091	    -14.26503991	    -21.43565061	    -41.59024678	     -1.35846626	     63.89598377	    -39.54548385	     -9.17395544	     67.82749224	     17.92278449	      4.09700171	    -24.99999983
      1.26000000	      2.96021843	      3.56950783	     12.36817525	     -0.12190489	      1.03928977	      0.03189406	      5.98055147	     12.33737182	     22.40663288	      7.34621313	     24.65765047	    -12.08038683	     15.94190108	    -75.75047756	     63.45948945	     56.73070038	    -29.10726418	     70.00000021	    -24.99999983	     10.13960044	     -3.55859060	    -14.25571966	    -21.36340958	    -41.58074723	     -1.35614603	     63.87069023	    -39.45965136	     -9.19021642	     67.80563136	     17.92097730	      4.09355183	    -24.99999983
      1.27000000	      2.97036215	      3.59557992	     12.37399386	     -0.12200973	      1.03939513	      0.03189509	      5.97053272	     12.16461481	     22.38109599	      7.22458652	     24.58462687	    -12.05861296	     15.84898861	    -75.60710071	     63.48478791	     56.51700935	    -29.10444945	     70.00000021	    -24.99999983	     10.19256079	     -3.81908715	    -14.35275447	    -21.09560895	    -41.55199907	     -1.27909570	     63.89080928	    -39.28308994	     -9.22928534	     67.30953567	     17.94607352	      4.02813685	    -24.99999983
      1.28000000	      2.95770778	      3.60038747	     12.46014397	     -0.12204576	      1.03882090	      0.03174256	      5.96455943	     12.12658562	     22.37790904	      7.19477360	     24.57909879	    -12.05881147	     15.82144242	    -75.56528697	     63.49231461	     56.54525609	    -29.09882217	     70.00000021	    -24.99999983	     10.19049677	     -3.87523679	    -14.34094896	    -21.02621904	    -41.51909630	     -1.27570462	     63.89637807	    -39.19658236	     -9.22099124	     67.31671758	     17.94493405	      4.01395538	    -24.99999983
      1.29000000	      2.90572197	      3.65767852	     12.44138381	     -0.12209445	      1.03861665	      0.03172181	      5.94835232	     11.94433797	     22.29864349	      7.08160403	     24.45667278	    -12.01557136	     15.80127025	    -75.41054867	     63.41961856	     56.51070735	    -29.13016954	     70.00000021	    -24.99999983	     10.23047343	     -4.09045245	    -14.40098749	    -20.78704642	    -41.45452127	     -1.21770834	     64.01508554	    -39.05486396	     -9.17192287	     66.98013382	     17.99055425	      3.89131124	    -24.99999983
      1.30000000	      2.89711894	      3.62571705	     12.53620420	     -0.12205834	      1.03792302	      0.03163370	      5.93754962	     11.92244554	     22.29898017	      7.05835944	     24.47142008	    -12.01635222	     15.80662123	    -75.37515305	     63.40557317	     56.52498342	    -29.13180644	     70.00000021	    -24.99999983	     10.23328757	     -4.12501953	    -14.39710848	    -20.73718349	    -41.41927218	     -1.20931759	     64.02895963	    -38.98158769	     -9.16795014	     67.00587625	     17.98887847	      3.88195786	    -24.99999983
      1.31000000	      2.87736473	      3.61378288	     12.63137159	     -0.12205348	      1.03730454	      0.03149074	      5.92781666	     11.89611221	     22.30372288	      7.03103791	     24.48827755	    -12.01966221	     15.81611892	    -75.32823560	     63.38667331	     56.54526662	    -29.13416259	     70.00000021	    -24.99999983	     10.23401431	     -4.16746091	    -14.39053765	    -20.68059152	    -41.38539741	     -1.20176570	     64.04318990	    -38.90568232	     -9.16153680	     67.02264702	     17.98823757	      3.87110520	    -24.99999983
      1.32000000	      2.67366926	      3.97605984	     12.56055356	     -0.12213895	      1.03750788	      0.03180441	      5.64935635	     11.31861536	     21.38047522	      6.77357242	     23.82235894	    -11.62806948	     16.33427377	    -75.01474294	     62.82848602	     56.91754878	    -29.38830591	     70.00000021	    -24.99999983	     10.55644014	     -4.71884521	    -15.08916108	    -20.31967481	    -41.78711724	     -0.91804875	     64.62254073	    -38.86317790	     -9.11527830	     66.98768740	     18.24228621	      2.66278332	    -24.99999983
      1.33000000	      2.65633084	      3.95367629	     12.64597547	     -0.12205661	      1.03691840	      0.03171960	      5.64429135	     11.31352825	     21.39184922	      6.76146643	     23.84517872	    -11.63345404	     16.34985201	    -74.98638747	     62.81861866	     56.91862231	    -29.38947210	     70.00000021	    -24.99999983	     10.56472339	     -4.74313830	    -15.09145468	    -20.27592363	    -41.74304043	     -0.90793589	     64.64654346	    -38.78801196	     -9.10480134	     67.01541293	     18.23860613	      2.65363300	    -24.99999983
      1.34000000	      2.64282858	      3.94224274	     12.73135229	     -0.12201680	      1.03646456	      0.03164878	      5.63813464	     11.30480016	     21.40459713	      6.74618603	     23.87018933	    -11.64098725	     16.36999530	    -74.95112844	     62.80391289	     56.92522074	    -29.39137908	     70.00000021	    -24.99999983	     10.57187639	     -4.76984017	    -15.09180182	    -20.22839565	    -41.69608227	     -0.89752362	     64.67315733	    -38.70763138	     -9.08866747	     67.05018521	     18.23326277	      2.64307717	    -24.99999983
      1.35000000	      2.67004612	      4.50510887	     12.67611463	     -0.12242303	      1.03645834	      0.03179500	      5.21959870	     11.01895729	     20.30352136	      6.67186290	     23.41246595	    -11.22894095	     18.03497836	    -74.72614769	     63.59854938	     57.44634038	    -29.27059146	     70.00000021	    -24.99999983	     11.40962058	     -5.56650404	    -17.04997882	    -20.16111101	    -43.30663058	     -0.22878279	     64.97740450	    -37.75028861	     -8.26422596	     67.23914923	     17.79477937	      0.50186525	    -24.99999983
      1.36000000	      2.65083569	      4.49497197	     12.76951074	     -0.12239246	      1.03626047	      0.03173943	      5.20712055	     11.01513070	     20.31162591	      6.65846087	     23.44419005	    -11.23595515	     18.05683143	    -74.69045078	     63.58389194	     57.46607753	    -29.27195320	     70.00000021	    -24.99999983	     11.41202289	     -5.58207927	    -17.03406679	    -20.11717240	    -43.24212154	     -0.22550599	     65.00813791	    -37.65422413	     -8.22351241	     67.30789807	     17.78086006	      0.49243931	    -24.99999983
